<svg id="Layer_2" data-name="Layer 2" xmlns="http://www.w3.org/2000/svg" viewBox="0 0 890.143 862.058" style="width: 100%; height: 100%;">
  <g id="Layer_2-2" data-name="Layer 2">
    <g>
      <ellipse cx="638.143" cy="838.805" rx="252" ry="23.253" fill="#fff"></ellipse>
      <ellipse cx="638.143" cy="838.805" rx="252" ry="23.253" fill="#292a2e" opacity=".1"></ellipse>
      <g>
        <rect x="139.486" y="493.015" width="80.326" height="23.372" fill="#f4f4f4"></rect>
        <rect x="150.273" y="493.015" width="10.525" height="23.372" fill="#292a2e" opacity=".05"></rect>
        <rect x="165.784" y="498.095" width="43.764" height="13.85" fill="#fff"></rect>
      </g>
      <g>
        <rect x="201.163" y="478.788" width="81.445" height="23.372" transform="translate(216.536 -55.814) rotate(23.594)" fill="#f4f4f4"></rect>
        <rect x="201.163" y="478.788" width="81.445" height="23.372" transform="translate(216.536 -55.814) rotate(23.594)" fill="#292a2e" opacity=".05"></rect>
        <rect x="258.955" y="488.574" width="10.672" height="23.372" transform="translate(222.326 -63.964) rotate(23.594)" fill="#fff"></rect>
        <rect x="212.122" y="480.588" width="44.373" height="13.85" transform="translate(214.717 -53.029) rotate(23.594)" fill="#fff"></rect>
      </g>
      <g>
        <g>
          <rect x="263.837" y="789.091" width="20.186" height="13.481" fill="#292a2e" opacity=".05"></rect>
          <rect x="57.456" y="789.091" width="20.186" height="13.481" fill="#292a2e" opacity=".05"></rect>
        </g>
        <rect x="38.953" y="517.483" width="263.574" height="271.152" fill="#f4f4f4"></rect>
        <rect x="38.953" y="517.483" width="263.574" height="271.152" fill="#292a2e" opacity=".03"></rect>
        <rect x="87.797" y="517.483" width="263.574" height="271.152" fill="#f4f4f4"></rect>
        <g>
          <rect x="312.681" y="789.091" width="20.186" height="13.481" fill="#292a2e" opacity=".05"></rect>
          <rect x="106.301" y="789.091" width="20.186" height="13.481" fill="#292a2e" opacity=".05"></rect>
        </g>
        <rect x="97.692" y="530.183" width="243.786" height="52.094" fill="#fff" opacity=".7"></rect>
        <rect x="97.692" y="595.027" width="243.786" height="52.094" fill="#fff" opacity=".7"></rect>
        <rect x="97.692" y="659.871" width="243.786" height="52.094" fill="#fff" opacity=".7"></rect>
        <circle cx="219.585" cy="556.23" r="7.289" fill="#292a2e" opacity=".05"></circle>
        <circle cx="219.585" cy="621.074" r="7.289" fill="#292a2e" opacity=".05"></circle>
        <circle cx="219.585" cy="685.919" r="7.289" fill="#292a2e" opacity=".05"></circle>
        <g>
          <rect x="97.692" y="726.177" width="243.786" height="52.094" fill="#fff" opacity=".7"></rect>
          <circle cx="219.585" cy="752.224" r="7.289" fill="#292a2e" opacity=".05"></circle>
        </g>
      </g>
      <g>
        <rect x="132.518" y="45.492" width="155.853" height="202.861" transform="translate(420.888 293.845) rotate(-180)" fill="#f4f4f4"></rect>
        <rect x="127.462" y="45.492" width="5.056" height="202.861" fill="#f4f4f4"></rect>
        <rect x="127.462" y="45.492" width="5.056" height="202.861" fill="#292a2e" opacity=".05"></rect>
        <rect x="160.908" y="82.446" width="99.071" height="128.954" transform="translate(420.888 293.845) rotate(-180)" fill="#292a2e" opacity=".05"></rect>
        <rect x="160.908" y="82.446" width="5.163" height="128.954" transform="translate(326.98 293.845) rotate(-180)" fill="#292a2e" opacity=".03"></rect>
        <rect x="5.056" y="298.24" width="127.462" height="128.633" transform="translate(137.573 725.112) rotate(-180)" fill="#f4f4f4"></rect>
        <rect x="28.275" y="321.672" width="81.024" height="81.768" transform="translate(137.573 725.112) rotate(-180)" fill="#292a2e" opacity=".05"></rect>
        <rect x="0" y="298.24" width="5.056" height="128.633" fill="#f4f4f4"></rect>
        <rect x="0" y="298.24" width="5.056" height="128.633" fill="#292a2e" opacity=".05"></rect>
        <rect x="28.275" y="321.672" width="5.163" height="81.768" transform="translate(61.712 725.112) rotate(-180)" fill="#292a2e" opacity=".03"></rect>
      </g>
      <g>
        <rect id="c_3_c" x="457.061" y="45.009" width="325.24" height="325.24" fill="#f4f4f4"></rect>
        <rect id="c_3_c-2" data-name="c_3_c" x="453.333" y="45.009" width="3.728" height="325.24" fill="#f4f4f4"></rect>
        <rect id="c_3_c-3" data-name="c_3_c" x="453.333" y="45.009" width="3.728" height="325.24" fill="#292a2e" opacity=".05"></rect>
        <polygon id="c_3_c-4" data-name="c_3_c" points="535.852 269.126 535.852 184.032 605.556 184.032 605.556 233.47 713.527 233.47 713.527 321.005 759.417 321.005 759.417 370.249 713.527 370.249 704.687 370.249 472.706 370.249 472.706 269.126 535.852 269.126" fill="#292a2e" opacity=".05"></polygon>
        <g id="c_3_wh">
          <rect id="c_3_wh-2" data-name="c_3_wh" x="545.849" y="193.271" width="50.759" height="9.239" fill="#fffffa" opacity=".34"></rect>
          <rect id="c_3_wh-3" data-name="c_3_wh" x="545.849" y="212.417" width="50.759" height="9.239" fill="#fffffa" opacity=".34"></rect>
          <rect id="c_3_wh-4" data-name="c_3_wh" x="545.849" y="231.563" width="50.759" height="9.239" fill="#fffffa" opacity=".34"></rect>
        </g>
        <g id="c_3_wh-5" data-name="c_3_wh">
          <rect id="c_3_wh-6" data-name="c_3_wh" x="481.707" y="278.094" width="9.356" height="9.239" fill="#fffffa" opacity=".34"></rect>
          <rect id="c_3_wh-7" data-name="c_3_wh" x="481.707" y="297.24" width="9.356" height="9.239" fill="#fffffa" opacity=".34"></rect>
          <rect id="c_3_wh-8" data-name="c_3_wh" x="481.707" y="316.385" width="9.356" height="9.239" fill="#fffffa" opacity=".34"></rect>
          <rect id="c_3_wh-9" data-name="c_3_wh" x="499.015" y="278.094" width="9.356" height="9.239" fill="#fffffa" opacity=".34"></rect>
          <rect id="c_3_wh-10" data-name="c_3_wh" x="499.015" y="297.24" width="9.356" height="9.239" fill="#fffffa" opacity=".34"></rect>
          <rect id="c_3_wh-11" data-name="c_3_wh" x="499.015" y="316.385" width="9.356" height="9.239" fill="#fffffa" opacity=".34"></rect>
          <rect id="c_3_wh-12" data-name="c_3_wh" x="515.855" y="278.094" width="9.356" height="9.239" fill="#fffffa" opacity=".34"></rect>
          <rect id="c_3_wh-13" data-name="c_3_wh" x="515.855" y="297.24" width="9.356" height="9.239" fill="#fffffa" opacity=".34"></rect>
          <rect id="c_3_wh-14" data-name="c_3_wh" x="515.855" y="316.385" width="9.356" height="9.239" fill="#fffffa" opacity=".34"></rect>
        </g>
        <polygon points="457.061 205.804 522.504 205.804 522.504 45.008 527.917 45.008 527.917 205.804 704.687 205.804 704.687 45.008 710.099 45.008 710.099 205.804 782.301 205.804 782.301 211.216 710.099 211.216 710.099 370.249 704.687 370.249 704.687 211.216 527.917 211.216 527.917 370.249 522.504 370.249 522.504 211.216 457.061 211.216 457.061 205.804" fill="#fff"></polygon>
        <rect id="c_3_c-5" data-name="c_3_c" x="444.104" y="369.856" width="351.153" height="10.816" fill="#f4f4f4"></rect>
        <rect id="c_3_c-6" data-name="c_3_c" x="444.104" y="369.856" width="351.153" height="10.816" fill="#292a2e" opacity=".1"></rect>
        <rect id="c_3_c-7" data-name="c_3_c" x="439.034" y="369.856" width="5.07" height="10.816" fill="#292a2e" opacity=".1"></rect>
        <rect id="c_3_c-8" data-name="c_3_c" x="439.034" y="369.856" width="5.07" height="10.816" fill="#292a2e" opacity=".1"></rect>
      </g>
      <rect x="96.512" y="12.514" width="363.775" height="430.432" rx="26.131" ry="26.131" fill="#292a2e"></rect>
      <g>
        <rect x="108.026" y="1" width="363.775" height="430.432" rx="26.131" ry="26.131" fill="#fff"></rect>
        <path d="m445.67,432.432H134.157c-14.96,0-27.131-12.171-27.131-27.131V27.131c0-14.96,12.171-27.131,27.131-27.131h311.513c14.96,0,27.131,12.171,27.131,27.131v378.17c0,14.96-12.171,27.131-27.131,27.131ZM134.157,2c-13.857,0-25.131,11.273-25.131,25.131v378.17c0,13.857,11.274,25.131,25.131,25.131h311.513c13.857,0,25.131-11.273,25.131-25.131V27.131c0-13.857-11.273-25.131-25.131-25.131H134.157Z" fill="#292a2e"></path>
      </g>
      <g>
        <g>
          <path d="m726.529,425.574c-49.793,0-90.158,13.584-90.158,30.341v36.121h180.315v-36.121c0-16.757-40.365-30.341-90.158-30.341Z" fill="#367cff"></path>
          <path d="m726.529,425.574c-49.793,0-90.158,13.584-90.158,30.341v36.121h180.315v-36.121c0-16.757-40.365-30.341-90.158-30.341Z" fill="#fff" opacity=".49"></path>
          <path d="m792.127,455.919v36.115h-155.757v-36.115c0-15.36,33.896-28.05,77.878-30.056,43.982,2.006,77.878,14.696,77.878,30.056Z" fill="#fff" opacity=".49"></path>
          <polygon points="816.687 843.01 819.713 843.01 816.687 488.832 813.687 491.858 815.826 739.261 709.013 741.076 706.858 491.832 703.858 491.858 706.014 741.127 641.535 742.223 639.37 491.832 636.37 488.858 639.396 843.01 642.37 842.985 641.56 745.224 706.039 744.128 706.858 843.01 709.858 842.985 709.039 744.077 815.852 742.261 816.687 843.01" fill="#292a2e"></polygon>
        </g>
        <g>
          <path d="m544.74,789.984s-5.362,27.794-31.385,29.343c-26.023,1.549-20.38,22.28-20.38,22.28h99.444s0-49.684,0-49.684l-47.68-1.938Z" fill="#367cff"></path>
          <path d="m601.477,706.388s7.457,27.306-15.209,40.183c-22.667,12.877-8.452,28.988-8.452,28.988l89.232-43.896-21.931-44.582-43.639,19.307Z" fill="#367cff"></path>
          <path d="m592.036,724.435l-67.238-253.689c-5.103-28.026,2.578-40.174,14.41-51.975,20.786-20.733,106.917-64.861,106.917-64.861l103.329-.282c27.398,0,54.334,27.017,54.334,54.416,0,27.398-27.854,50.633-55.252,50.633l-127.242,12.698,34.491,232.286-63.749,20.775Z" fill="#262626"></path>
          <polygon points="655.786 703.661 642.207 612.213 573.415 654.177 592.036 724.435 655.786 703.661" fill="#0c0c0c"></polygon>
          <path d="m671.379,405.247s-43.437,9.681-86.457,52.701c-26.083,26.083-23.944,73.284-20.031,164.067l42.727-63.11,46.864-84.522,16.897-69.136Z" fill="#0c0c0c"></path>
          <path d="m821.777,353.597l-70.173-.331-.027.924h-21.248s-53.224,48.979-96.078,79.842c-31.17,22.448-50.185,43.85-51.83,67.177-4.011,56.86-49.249,299.365-49.249,299.365l68.082,10.309,59.742-289.811s93.425-43.068,115.034-58.056c20.348-14.114,34.721-19.569,41.454-34.971,11.63-26.601,4.293-74.447,4.293-74.447Z" fill="#262626"></path>
        </g>
        <path d="m743.05,371.275l-113.841,1.508,63.859,38.14,53.136-27.44c5.986-3.212,3.639-12.298-3.155-12.208Z" fill="#292a2e"></path>
        <path d="m743.05,371.275l-113.841,1.508,63.859,38.14,53.136-27.44c5.986-3.212,3.639-12.298-3.155-12.208Z" fill="#fff" opacity=".2"></path>
        <path d="m629.862,167.045l-32.196,104.331-64.495,84.442,37.675,43.248,76.729-85.64c3.395-2.685,6.264-6.318,8.035-10.603l1.195-2.893,44.315-107.228-71.259-25.658Z" fill="#367cff"></path>
        <g>
          <g>
            <path id="sk" d="m686.094,139.105c.204-.027,2.469,37.552,46.124,34.276,30.222-2.264,40.998-34.329,41.691-34.329-3.258-.693-7.285-1.744-8.886-2.104-5.317-1.198-11.954-5.586-13.488-14.827-.884-5.327.616-32.577.154-37.966l-46.391,10.355c.648,11.382,5.185,37.769-10.716,42.439-2.646.772-5.496,1.483-8.488,2.157Z" fill="#ff9e85"></path>
            <path id="sh" d="m704.648,126.164c.657-2.097,1.048-3.921,1.395-7.2.621-5.864.291-11.254-.303-16.747,9.372-1.247,18.369-5.189,25.64-11.233.861,3.181,5.599,17.082,4.287,20.106-2.479,5.715-14.131,15.074-31.019,15.074Z" fill="#0c0c0c" opacity=".22"></path>
            <g>
              <path d="m677.061,54.42s-13.313-9.893-16.765-32.868c-2.673-17.789,13.84-6.375,13.84-6.375,0,0-1.8-12.828,7.561-11.623,9.361,1.204,14.704,14.654,14.704,14.654" fill="#0c0c0c"></path>
              <path d="m730.065,4.695s46.455,4.63,30.146,67.654l-4.105.306-8.333.621" fill="#0c0c0c"></path>
              <path d="m713.441,118.013c18.289-1.778,40.107-13.505,40.238-38.351l.117-22.418c.13-24.845-12.814-45.055-36.207-45.177h0c-23.393-.123-40.984,19.927-41.114,44.772l-.052,9.925c-.011,2.043.185,5.71.819,10.18,1.266,8.918,3.228,22.478,9.356,31.615,5.786,8.626,15.158,10.59,26.842,9.454Z" fill="#ff9e85"></path>
              <g>
                <g>
                  <circle id="e1_eye" cx="687.932" cy="70.445" r="2.551" transform="translate(-3 99.178) rotate(-8.228)" fill="#0a0a0a"></circle>
                  <g id="e1_n">
                    <path d="m705.23,86.301c.511-.074.893-.523.872-1.05-.022-.563-.496-1.002-1.06-.979l-5.429.214,1.747-11.158c.087-.557-.294-1.079-.851-1.166-.556-.087-1.078.293-1.166.85l-1.938,12.385c-.047.302.044.608.247.836s.497.353.802.341l6.669-.263c.036-.001.072-.005.106-.01Z" fill="#0a0a0a"></path>
                  </g>
                  <g id="e1_m">
                    <path d="m708.071,97.565c9.154-1.324,11.077-7.249,11.162-7.526.165-.539-.138-1.109-.677-1.274-.535-.165-1.104.136-1.272.67-.08.252-2.09,6.088-12.336,6.341-.575.012-1.009.482-.996,1.045.014.563.482,1.009,1.045.995,1.106-.027,2.129-.115,3.074-.251Z" fill="#0a0a0a"></path>
                  </g>
                  <path id="e1_eb" d="m709.895,56.24c-.134.787,2.765,1.516,6.762,1.991s7.587.715,7.712-.272c.157-1.246-3.118-3.653-7.115-4.127-3.997-.475-7.149,1.17-7.359,2.408Z" fill="#0a0a0a"></path>
                  <circle id="e1_eye-2" data-name="e1_eye" cx="714.581" cy="68.524" r="2.551" transform="translate(-2.451 102.972) rotate(-8.228)" fill="#0a0a0a"></circle>
                </g>
                <path id="e1_eb-2" data-name="e1_eb" d="m679.309,61.202c.197.774,3.143.264,6.989-.924,3.846-1.188,7.224-2.425,6.938-3.378-.362-1.203-3.935-2.219-7.78-1.032-3.846,1.188-6.456,4.116-6.146,5.333Z" fill="#0a0a0a"></path>
              </g>
              <path d="m752.186,87.224c7.109.037,12.912-7.538,12.949-14.647.037-7.109-5.705-11.06-12.814-11.097l-3.688,4.744-2.559,20.968,6.112.032Z" fill="#ff9e85"></path>
              <path d="m747.193,75.644c-1.185.115-2.241-.743-2.362-1.927-.781-7.65-4.065-33.311-13.141-35.088-7.11-1.393-24.25,8.806-40.219,5.884-6.986-1.278-13.596.498-14.245,3.798-.257,1.307-4.743-17.41,6.075-31.722,8.613-11.395,37.053-14.806,50.031-11.188,35.934,10.019,20.466,57.617,20.466,57.617l-1.295,10.411c-.125,1.005-.93,1.789-1.939,1.887l-3.372.328Z" fill="#0c0c0c"></path>
              <ellipse cx="698.419" cy="14.646" rx="14.326" ry="9.733" transform="translate(546.336 696.464) rotate(-78.627)" fill="#0c0c0c"></ellipse>
            </g>
          </g>
          <path d="m633.926,219.798c1.348,15.833,10.903,114.61,12.199,134.112h175.575c1.009-17.589,5.538-94.5,9.364-128.895,3.652-32.821,8.77-47.757,4.564-57.957-7.418-17.989-31.03-26.023-47.019-28.188-9.764-1.322-24.449-2.269-24.449-2.269,0,0-1.243,25.153-30.891,26.553-40.36,1.904-37.664-26.553-37.864-26.553-6.538,0-42.128,4.755-51.027,10.555-12.569,8.192-16.284,19.357-16.431,29.614-.169,11.81,4.449,25.071,5.98,43.028Z" fill="#367cff"></path>
          <path d="m642.829,314.986c-.256,0-.475-.196-.497-.457l-6.652-76.08c-.024-.275.18-.518.454-.542.28-.031.519.179.542.455l6.652,76.08c.024.275-.18.518-.454.542-.016.001-.03.002-.045.002Z" fill="#0c0c0c"></path>
          <g id="b_4_ha">
            <path d="m655.56,359.178l24.108-19.559-4.057,1.147c-2.724.653-5.655-.801-6.45-3.488-.848-2.865.885-5.819,3.753-6.506l50.647-12.319,4.357,16.133c2.768,10.25-.959,21.155-9.423,27.565l-18.766,14.161c-1.995,1.511-4.844,1.547-6.704-.127-1.796-1.617-2.162-4.042-1.287-5.996-.078-.027-.154-.065-.212-.132-.109-.128-.132-.293-.091-.444l-3.457,2.618c-2.233,1.691-5.502,1.535-7.307-.607-1.664-1.974-1.587-4.779-.019-6.654-.056-.007-.103-.027-.154-.053l-1.421,1.076c-1.995,1.511-4.845,1.546-6.704-.128-2.175-1.959-2.26-5.104-.574-7.159-.02-.03-.038-.061-.051-.094l-10.039,8.145c-2.093,1.698-5.166,1.378-6.865-.715-1.698-2.093-1.378-5.166.715-6.865Z" fill="#ff9e85"></path>
            <path id="b_4_ha_sh" d="m672.362,358.899c.052-.019.101-.046.146-.084l9.659-8.025c.206-.171.235-.478.063-.684-.171-.206-.478-.234-.684-.063l-9.659,8.025c-.206.171-.235.478-.063.684.134.162.351.214.538.147Z" fill="#0a0a0a" opacity=".2"></path>
            <path id="b_4_ha_sh-2" data-name="b_4_ha_sh" d="m680.875,364.961c.051-.018.099-.045.143-.081l7.641-6.248c.208-.17.239-.476.069-.684-.17-.208-.476-.24-.684-.069l-7.641,6.248c-.208.17-.239.476-.069.684.134.164.352.218.541.15Z" fill="#0a0a0a" opacity=".2"></path>
            <path id="b_4_ha_sh-3" data-name="b_4_ha_sh" d="m692.059,370.198c.054-.019.106-.049.152-.089l3.54-3.035c.204-.174.227-.481.053-.685-.175-.205-.481-.23-.686-.053l-3.54,3.035c-.204.174-.227.481-.053.685.135.158.349.208.533.141Z" fill="#0a0a0a" opacity=".2"></path>
          </g>
          <path d="m868.632,311.271l-.186-.821-32.043-141.743-63.4,14.333,25.012,110.639-100.201,24.624,12.331,56.539,133.527-25.472c.305-.06.744-.15,1.049-.219,17.063-3.857,27.769-20.817,23.911-37.88Z" fill="#367cff"></path>
          <path d="m697.325,318.407c-.056-.264.108-.524.37-.588l99.752-24.498-16.22-71.636c-.062-.269.107-.537.377-.598.27-.062.537.108.598.377l16.328,72.115c.061.266-.104.531-.368.596l-99.759,24.499s.668,2.916.857,3.895c.062.32-.249.489-.362.517-.122.03-.503.068-.605-.404-.23-1.071-.969-4.274-.969-4.274Z" fill="#0c0c0c"></path>
          <g>
            <path d="m701.235,397.357l-38.525-118.423c-1.389-4.269-5.368-7.159-9.857-7.159h-156.952c-7.043,0-12.036,6.874-9.857,13.572l38.525,118.423c1.389,4.269,5.368,7.159,9.857,7.159h156.952c7.043,0,12.036-6.874,9.857-13.572Z" fill="#292a2e"></path>
            <path d="m701.235,397.357l-38.525-118.423c-1.389-4.269-5.368-7.159-9.857-7.159h-156.952c-7.043,0-12.036,6.874-9.857,13.572l38.525,118.423c1.389,4.269,5.368,7.159,9.857,7.159h156.952c7.043,0,12.036-6.874,9.857-13.572Z" fill="#fff" opacity=".2"></path>
            <circle cx="589.118" cy="341.352" r="16.461" fill="#fff"></circle>
          </g>
        </g>
      </g>
      <circle cx="103.83" cy="420.667" r="64.877" fill="#292a2e"></circle>
      <g>
        <path d="m90.362,412.202c-1.779,0-3.221-1.442-3.221-3.221v-15.593c0-8.621,7.487-15.636,16.689-15.636s16.689,7.014,16.689,15.636v14.521c0,1.779-1.442,3.221-3.221,3.221s-3.221-1.442-3.221-3.221v-14.521c0-5.07-4.597-9.195-10.248-9.195s-10.248,4.125-10.248,9.195v15.593c0,1.779-1.442,3.221-3.221,3.221Z" fill="#fff"></path>
        <rect x="78.945" y="406.285" width="49.77" height="47.384" rx="4.339" ry="4.339" fill="#fff"></rect>
        <path d="m99.739,426.145c0,1.623.941,3.014,2.304,3.682v6.286c0,.995.805,1.786,1.786,1.786.982,0,1.786-.791,1.786-1.786v-6.286c1.364-.668,2.304-2.059,2.304-3.682,0-2.263-1.827-4.091-4.091-4.091s-4.091,1.827-4.091,4.091Z" fill="#292a2e"></path>
      </g>
      <g>
        <g>
          <rect x="150.247" y="215.773" width="279.333" height="58.27" rx="11.113" ry="11.113" fill="#fff"></rect>
          <path d="m418.466,275.042H161.36c-6.679,0-12.113-5.434-12.113-12.113v-36.043c0-6.679,5.434-12.113,12.113-12.113h257.106c6.679,0,12.113,5.434,12.113,12.113v36.043c0,6.679-5.434,12.113-12.113,12.113Zm-257.106-58.27c-5.577,0-10.113,4.537-10.113,10.113v36.043c0,5.577,4.537,10.113,10.113,10.113h257.106c5.577,0,10.113-4.537,10.113-10.113v-36.043c0-5.577-4.537-10.113-10.113-10.113H161.36Z" fill="#292a2e"></path>
        </g>
        <g>
          <rect x="150.247" y="299.047" width="279.333" height="58.27" rx="11.113" ry="11.113" fill="#fff"></rect>
          <path d="m418.466,358.316H161.36c-6.679,0-12.113-5.434-12.113-12.113v-36.043c0-6.679,5.434-12.113,12.113-12.113h257.106c6.679,0,12.113,5.434,12.113,12.113v36.043c0,6.679-5.434,12.113-12.113,12.113Zm-257.106-58.27c-5.577,0-10.113,4.537-10.113,10.113v36.043c0,5.577,4.537,10.113,10.113,10.113h257.106c5.577,0,10.113-4.537,10.113-10.113v-36.043c0-5.577-4.537-10.113-10.113-10.113H161.36Z" fill="#292a2e"></path>
        </g>
        <g>
          <circle cx="289.913" cy="112.736" r="59.694" fill="#fff"></circle>
          <path d="m289.913,173.43c-33.467,0-60.694-27.227-60.694-60.694s27.228-60.694,60.694-60.694,60.694,27.228,60.694,60.694-27.227,60.694-60.694,60.694Zm0-119.388c-32.364,0-58.694,26.33-58.694,58.694s26.33,58.694,58.694,58.694,58.694-26.33,58.694-58.694-26.33-58.694-58.694-58.694Z" fill="#292a2e"></path>
        </g>
        <g>
          <path d="m348.281,112.736c0,14.392-5.214,27.548-13.83,37.72-10.766-12.53-26.729-20.472-44.538-20.472s-33.773,7.942-44.538,20.488c-8.616-10.188-13.83-23.344-13.83-37.736,0-32.232,26.136-58.368,58.368-58.368s58.368,26.136,58.368,58.368Z" fill="#367cff" opacity=".5"></path>
          <path d="m334.451,150.455c-10.701,12.643-26.681,20.649-44.538,20.649s-33.821-8.006-44.538-20.633c10.766-12.546,26.713-20.488,44.538-20.488s33.773,7.942,44.538,20.472Z" fill="#fff"></path>
          <circle cx="289.914" cy="95.5" r="23.593" fill="#fff"></circle>
        </g>
        <g fill="none" opacity=".4">
          <circle cx="171.889" cy="328.182" r="7.096" fill="#292a2e"></circle>
          <circle cx="194.086" cy="328.182" r="7.096" fill="#292a2e"></circle>
          <circle cx="216.283" cy="328.182" r="7.096" fill="#292a2e"></circle>
          <circle cx="238.48" cy="328.182" r="7.096" fill="#292a2e"></circle>
          <circle cx="260.676" cy="328.182" r="7.096" fill="#292a2e"></circle>
          <circle cx="282.873" cy="328.182" r="7.096" fill="#292a2e"></circle>
          <circle cx="305.07" cy="328.182" r="7.096" fill="#292a2e"></circle>
        </g>
      </g>
      <g fill="none" opacity=".3">
        <path d="m178.927,244.48v2.398h-9.113v-2.398h9.113Z"></path>
        <path d="m190.252,244.48v2.398h-9.113v-2.398h9.113Z"></path>
        <path d="m201.576,244.48v2.398h-9.113v-2.398h9.113Z"></path>
        <path d="m212.901,244.48v2.398h-9.113v-2.398h9.113Z"></path>
        <path d="m224.226,244.48v2.398h-9.113v-2.398h9.113Z"></path>
        <path d="m244.663,258.021c-2.029,1.07-4.096,1.476-6.567,1.476-6.051,0-11.18-4.428-11.18-11.512,0-7.601,5.276-14.168,13.467-14.168,6.42,0,10.737,4.501,10.737,10.663,0,5.534-3.099,8.781-6.567,8.781-1.476,0-2.841-.996-2.73-3.247h-.147c-1.292,2.177-2.988,3.247-5.202,3.247-2.14,0-3.985-1.734-3.985-4.648,0-4.575,3.616-8.745,8.744-8.745,1.587,0,2.989.332,3.948.775l-1.255,6.678c-.553,2.804-.11,4.095,1.107,4.132,1.882.037,3.985-2.472,3.985-6.752,0-5.35-3.21-9.187-8.929-9.187-6.014,0-11.069,4.759-11.069,12.25,0,6.162,4.022,9.961,9.482,9.961,2.103,0,4.059-.442,5.571-1.291l.59,1.586Zm-2.029-15.939c-.369-.111-.996-.258-1.845-.258-3.247,0-5.867,3.062-5.867,6.641,0,1.624.812,2.804,2.435,2.804,2.14,0,4.096-2.73,4.501-5.018l.775-4.169Z"></path>
        <path d="m262.737,244.48v2.398h-9.113v-2.398h9.113Z"></path>
        <path d="m274.062,244.48v2.398h-9.113v-2.398h9.113Z"></path>
        <path d="m285.386,244.48v2.398h-9.113v-2.398h9.113Z"></path>
      </g>
    </g>
  </g>
</svg>